<svg xmlns="http://www.w3.org/2000/svg" viewBox="0 0 24 24"><path d="M15.62 6.45a3.14 3.14 0 1 0-3.13-3.14 3.15 3.15 0 0 0 3.13 3.14Zm0-4.77A1.64 1.64 0 1 1 14 3.31a1.64 1.64 0 0 1 1.62-1.63ZM23.26 18.64a.74.74 0 0 0-1-.31l-.33.17-3.59-6.69a2.19 2.19 0 0 0 .48-1.37 2.25 2.25 0 0 0-2.24-2.26h-1.89l-1.84-2a3.5 3.5 0 0 0-4.53-.58L3.7 8.71A3.05 3.05 0 0 0 4 14l2.82 1.47-1.14 1.21a2.33 2.33 0 0 0-.56 1.25l-3.38-1.69a.75.75 0 0 0-1 .33.76.76 0 0 0 .34 1L13 23.52a2.78 2.78 0 0 0 1.26.3 2.74 2.74 0 0 0 1.33-.34l.82-.45a.75.75 0 0 0-.72-1.32l-.82.46a1.3 1.3 0 0 1-1.2 0l-4.78-2.36.11-.12 2.6-2.89a2.81 2.81 0 0 0-.8-4.37l-2.6-1.35 1.9-1.26 1.9 2.12a2.22 2.22 0 0 0 1.66.74h2.86a2 2 0 0 0 .5-.06l3.58 6.58-.54.29a.75.75 0 0 0-.31 1 .74.74 0 0 0 .66.39.72.72 0 0 0 .35-.08l.55-.3.44.83a.77.77 0 0 0 .67.4.73.73 0 0 0 .35-.09.76.76 0 0 0 .31-1l-.45-.82.32-.17a.75.75 0 0 0 .31-1.01Zm-6.7-7.46H13.7a.77.77 0 0 1-.56-.25l-2.51-2.76a.5.5 0 0 0-.63-.08l-3.79 2.54a.61.61 0 0 0 0 1l3.88 2.09a1.31 1.31 0 0 1 .69.92 1.28 1.28 0 0 1-.31 1.11l-2.56 2.93a.71.71 0 0 1-.55.25.77.77 0 0 1-.51-.19.76.76 0 0 1 0-1.06l1.79-2a.73.73 0 0 0-.21-1.15l-3.74-1.91A1.56 1.56 0 0 1 4.54 10l4.62-3.16a2 2 0 0 1 2.58.32L14 9.68h2.54a.75.75 0 0 1 0 1.5Z"></path></svg>