<svg xmlns="http://www.w3.org/2000/svg" class="bk-icon -streamline-baby_cot" viewBox="0 0 24 24" role="presentation" aria-hidden="true" focusable="false"><path d="M0 11.25v3a.75.75 0 0 0 1.5 0v-3a.75.75 0 0 0-1.5 0zm22.5 0v3a.75.75 0 0 0 1.5 0v-3a.75.75 0 0 0-1.5 0zm0 10.5a.75.75 0 0 1-.75.75H2.25a.75.75 0 0 1-.75-.75v-7.5L.75 15h22.5l-.75-.75v7.5zm1.5 0v-7.5a.75.75 0 0 0-.75-.75H.75a.75.75 0 0 0-.75.75v7.5A2.25 2.25 0 0 0 2.25 24h19.5A2.25 2.25 0 0 0 24 21.75zm-19.5-7.5v9a.75.75 0 0 0 1.5 0v-9a.75.75 0 0 0-1.5 0zm4.5 0v9a.75.75 0 0 0 1.5 0v-9a.75.75 0 0 0-1.5 0zm4.5 0v9a.75.75 0 0 0 1.5 0v-9a.75.75 0 0 0-1.5 0zm4.5 0v9a.75.75 0 0 0 1.5 0v-9a.75.75 0 0 0-1.5 0zM15 .75v4.5a.75.75 0 0 0 1.5 0V.75a.75.75 0 0 0-1.5 0zm-4.5 1.5v3.201a.75.75 0 0 0 1.5 0V2.25a.75.75 0 0 0-1.5 0zm9 0v3.201a.75.75 0 0 0 1.5 0V2.25a.75.75 0 0 0-1.5 0zM9.75 3h12a.75.75 0 0 0 0-1.5h-12a.75.75 0 0 0 0 1.5zm1.5 3.75a.75.75 0 1 1-1.5 0 .75.75 0 0 1 1.5 0zm1.5 0a2.25 2.25 0 1 0-4.5 0 2.25 2.25 0 0 0 4.5 0zm3.75 0a.75.75 0 1 1-1.5 0 .75.75 0 0 1 1.5 0zm1.5 0a2.25 2.25 0 1 0-4.5 0 2.25 2.25 0 0 0 4.5 0zm3.75 0a.75.75 0 1 1-1.5 0 .75.75 0 0 1 1.5 0zm1.5 0a2.25 2.25 0 1 0-4.5 0 2.25 2.25 0 0 0 4.5 0z"></path></svg>