<svg xmlns="http://www.w3.org/2000/svg" class="bk-icon -streamline-weather_moon_stars" viewBox="0 0 24 24" role="presentation" aria-hidden="true" focusable="false"><path d="M16.5 21a9 9 0 1 1 0-18 1.02 1.02 0 0 0 1.004-1.048 1.014 1.014 0 0 0-.56-.873A11.912 11.912 0 0 0 12 0C5.373 0 0 5.373 0 12s5.373 12 12 12c1.697 0 3.375-.364 4.92-1.067a1.02 1.02 0 0 0 .478-1.372 1.014 1.014 0 0 0-.872-.56zm-.026 1.5a.486.486 0 0 1-.2-.92c-1.326.602-2.791.92-4.274.92C6.2 22.5 1.5 17.799 1.5 12S6.201 1.5 12 1.5c1.483 0 2.948.318 4.298.933a.497.497 0 0 1-.293-.43.486.486 0 0 1 .47-.503C10.7 1.5 6 6.201 6 12s4.701 10.5 10.5 10.5zM16.5 6.75v3a.75.75 0 0 0 1.5 0v-3a.75.75 0 0 0-1.5 0zM15.75 9h3a.75.75 0 0 0 0-1.5h-3a.75.75 0 0 0 0 1.5zM21 12.75v3a.75.75 0 0 0 1.5 0v-3a.75.75 0 0 0-1.5 0zM20.25 15h3a.75.75 0 0 0 0-1.5h-3a.75.75 0 0 0 0 1.5zm-6.75-.75v3a.75.75 0 0 0 1.5 0v-3a.75.75 0 0 0-1.5 0zm-.75 2.25h3a.75.75 0 0 0 0-1.5h-3a.75.75 0 0 0 0 1.5z"></path></svg>