<svg xmlns="http://www.w3.org/2000/svg" class="bk-icon -streamline-soda_can" viewBox="0 0 24 24" role="presentation" aria-hidden="true" focusable="false"><path d="M6.75 7.5h10.5a.75.75 0 0 0 0-1.5H6.75a.75.75 0 0 0 0 1.5zm4.35-1.2l-2.25-3a.75.75 0 1 0-1.2.9l2.25 3a.75.75 0 1 0 1.2-.9zm2.775-1.8a.375.375 0 1 1 0-.75.375.375 0 0 1 0 .75.75.75 0 0 0 0-1.5 1.125 1.125 0 1 0 0 2.25 1.125 1.125 0 0 0 0-2.25.75.75 0 0 0 0 1.5zm2.25-2.25a.375.375 0 1 1 0-.75.375.375 0 0 1 0 .75.75.75 0 0 0 0-1.5 1.125 1.125 0 1 0 0 2.25 1.125 1.125 0 0 0 0-2.25.75.75 0 0 0 0 1.5zm-4.5-.75a.375.375 0 1 1 0-.75.375.375 0 0 1 0 .75.75.75 0 0 0 0-1.5 1.125 1.125 0 1 0 0 2.25 1.125 1.125 0 0 0 0-2.25.75.75 0 0 0 0 1.5zm-3.21 4.782L5.742 9.62a2.25 2.25 0 0 0-.493 1.406v9.52c0 .444.132.878.378 1.248l.8 1.2A2.249 2.249 0 0 0 8.298 24H15.7a2.25 2.25 0 0 0 1.872-1.002l.8-1.2a2.25 2.25 0 0 0 .378-1.254v-9.518a2.25 2.25 0 0 0-.494-1.406l-2.67-3.338a.75.75 0 0 0-1.172.936l2.671 3.34a.75.75 0 0 1 .165.468v9.52c0 .15-.044.296-.126.42l-.8 1.2a.75.75 0 0 1-.624.334H8.3a.75.75 0 0 1-.623-.336l-.801-1.202a.75.75 0 0 1-.126-.416v-9.52a.75.75 0 0 1 .165-.468l2.67-3.34a.75.75 0 0 0-1.17-.936z"></path></svg>